<svg width="56" height="56" viewBox="0 0 56 56" fill="none" xmlns="http://www.w3.org/2000/svg">
<g id="4. Elements / Icons / Basics / Clock">
<g id="Group 8">
<path id="Combined Shape" fill-rule="evenodd" clip-rule="evenodd" d="M28.0001 4.13636C41.1601 4.13636 51.8637 14.84 51.8637 28C51.8637 41.16 41.1601 51.8636 28.0001 51.8636C14.8401 51.8636 4.13645 41.16 4.13645 28C4.13645 14.84 14.8401 4.13636 28.0001 4.13636ZM28.0001 0.159088C12.623 0.159088 0.15918 12.6229 0.15918 28C0.15918 43.3771 12.623 55.8409 28.0001 55.8409C43.3772 55.8409 55.841 43.3771 55.841 28C55.841 12.6229 43.3772 0.159088 28.0001 0.159088ZM25.7206 31.6865L24.3137 30.2795C24.08 30.0459 24.08 29.668 24.3137 29.4368L25.7505 28L17.3537 19.6032C17.1201 19.3695 17.1201 18.9917 17.3537 18.7605L18.7607 17.3536C18.9943 17.1199 19.3722 17.1199 19.6033 17.3536L28.0002 25.7504L40.3742 13.3763C40.6079 13.1426 40.9858 13.1426 41.2169 13.3763L42.6239 14.7832C42.8575 15.0169 42.8575 15.3947 42.6239 15.6259L30.2498 28L31.6866 29.4368C31.9203 29.6705 31.9203 30.0483 31.6866 30.2795L30.2797 31.6865C30.046 31.9201 29.6682 31.9201 29.437 31.6865L28.0002 30.2496L26.5633 31.6865C26.3321 31.9201 25.9543 31.9201 25.7206 31.6865ZM28.597 12.0909H27.4038C27.0732 12.0909 26.8072 11.8249 26.8072 11.4943V6.72159C26.8072 6.39098 27.0732 6.125 27.4038 6.125H28.597C28.9276 6.125 29.1936 6.39098 29.1936 6.72159V11.4943C29.1936 11.8249 28.9276 12.0909 28.597 12.0909ZM6.72136 29.1932H11.4941C11.8247 29.1932 12.0907 28.9272 12.0907 28.5966V27.4034C12.0907 27.0728 11.8247 26.8068 11.4941 26.8068H6.72136C6.39075 26.8068 6.12477 27.0728 6.12477 27.4034V28.5966C6.12477 28.9272 6.39075 29.1932 6.72136 29.1932ZM49.2788 29.1932H44.5061C44.1755 29.1932 43.9095 28.9272 43.9095 28.5966V27.4034C43.9095 27.0728 44.1755 26.8068 44.5061 26.8068H49.2788C49.6094 26.8068 49.8754 27.0728 49.8754 27.4034V28.5966C49.8754 28.9272 49.6094 29.1932 49.2788 29.1932ZM27.4038 49.875H28.597C28.9276 49.875 29.1936 49.609 29.1936 49.2784V44.5057C29.1936 44.1751 28.9276 43.9091 28.597 43.9091H27.4038C27.0732 43.9091 26.8072 44.1751 26.8072 44.5057V49.2784C26.8072 49.609 27.0732 49.875 27.4038 49.875Z" fill="url(#paint0_linear)"/>
</g>
</g>
<defs>
<linearGradient id="paint0_linear" x1="39.0104" y1="70.8456" x2="70.2488" y2="16.365" gradientUnits="userSpaceOnUse">
<stop stop-color="#1F95FD"/>
<stop offset="1" stop-color="#4FE8E4"/>
</linearGradient>
</defs>
</svg>
